<svg xmlns="http://www.w3.org/2000/svg" viewBox="0 0 32 32">
<rect width="32" height="32" rx="6" fill="#0A0A0A"/>
<g fill="#FAF7F2" stroke="#0A0A0A" stroke-width="0.9" stroke-linejoin="round">
<path d="M 29.00 16.00 A 13 13 0 0 1 22.50 27.26 L 20.39 19.14 Z"/>
<path d="M 22.50 27.26 A 13 13 0 0 1 9.50 27.26 L 15.48 21.37 Z"/>
<path d="M 9.50 27.26 A 13 13 0 0 1 3.00 16.00 L 11.09 18.24 Z"/>
<path d="M 3.00 16.00 A 13 13 0 0 1 9.50 4.74 L 11.61 12.86 Z"/>
<path d="M 9.50 4.74 A 13 13 0 0 1 22.50 4.74 L 16.52 10.63 Z"/>
<path d="M 22.50 4.74 A 13 13 0 0 1 29.00 16.00 L 20.91 13.76 Z"/>
</g>
<circle cx="16" cy="16" r="2.1" fill="#FF3B30"/>
</svg>